<?xml version="1.0" encoding="UTF-8"?>
<svg id="Layer_1" data-name="Layer 1" xmlns="http://www.w3.org/2000/svg" xmlns:xlink="http://www.w3.org/1999/xlink" viewBox="0 0 28 28">
  <defs>
    <style>
      .cls-1 {
        clip-path: url(#clippath);
      }

      .cls-2, .cls-3 {
        fill: none;
      }

      .cls-2, .cls-4 {
        stroke-width: 0px;
      }

      .cls-3 {
        stroke: #000;
        stroke-width: 2px;
      }

      .cls-4 {
        fill: #000;
        fill-rule: evenodd;
      }
    </style>
    <clipPath id="clippath">
      <rect class="cls-2" x="2" y="2" width="24" height="24"/>
    </clipPath>
  </defs>
  <g class="cls-1">
    <path class="cls-4" d="M5.06,9.22l1.49.14c.12-1.27.69-2.41,1.64-3.28l-1.01-1.11c-1.21,1.11-1.96,2.62-2.12,4.24ZM6.67,3.28l-.79-1.28c-2.62,1.61-4.07,4.36-3.87,7.34l1.5-.1c-.16-2.42,1.02-4.65,3.16-5.96ZM18.5,15.5c-3.31,0-6-2.69-6-6,0-1.75.76-3.31,1.96-4.41.53-.49,1.14-.89,1.82-1.16.08-.03.17-.05.25-.08.26-.09.53-.18.81-.24.38-.08.76-.12,1.16-.12,3.31,0,6,2.69,6,6,0,.39-.04.76-.11,1.12-.02.13-.07.25-.1.38-.06.23-.12.45-.21.67-.06.15-.13.29-.2.44-.08.17-.17.34-.27.5-.1.16-.2.31-.31.46-.09.12-.19.24-.29.35-.14.16-.28.32-.44.47-.07.06-.14.12-.21.17-.69.59-1.51,1.02-2.42,1.25h0c-.47.12-.94.19-1.44.19ZM26,9.5c0-4.14-3.36-7.5-7.5-7.5-3.24,0-5.97,2.06-7.02,4.93-2.26.85-3.42,2.91-3.42,5.63v4.92l-3.06,2.55v2.97h6c0,1.66,1.34,3,3,3s3-1.34,3-3h6v-2.97l-3.06-2.55v-.62c3.45-.67,6.06-3.71,6.06-7.36ZM20.77,6.97l-3.52,3.47-1.01-1.01-1.06,1.06,2.06,2.07,4.58-4.51-1.05-1.07Z"/>
  </g>
  <rect class="cls-3" x="1" y="1" width="26" height="26"/>
</svg>