<?xml version="1.0" encoding="UTF-8"?>
<svg id="Layer_1" data-name="Layer 1" xmlns="http://www.w3.org/2000/svg" xmlns:xlink="http://www.w3.org/1999/xlink" viewBox="0 0 24 24">
  <defs>
    <style>
      .cls-1 {
        clip-path: url(#clippath);
      }

      .cls-2 {
        fill: none;
      }

      .cls-2, .cls-3 {
        stroke-width: 0px;
      }

      .cls-3 {
        fill: #000;
        fill-rule: evenodd;
      }
    </style>
    <clipPath id="clippath">
      <rect class="cls-2" width="24" height="24"/>
    </clipPath>
  </defs>
  <g class="cls-1">
    <g>
      <path class="cls-3" d="M12,7.5c-2.49,0-4.5,2.01-4.5,4.5s2.01,4.5,4.5,4.5,4.5-2.01,4.5-4.5-2.02-4.5-4.5-4.5ZM12,17.25c-3.19,0-6.62-1.98-9.22-5.25,2.6-3.27,6.03-5.25,9.22-5.25s6.62,1.98,9.22,5.25c-2.6,3.27-6.03,5.25-9.22,5.25ZM12,4.5C7.5,4.5,3,7.5,0,12c3,4.5,7.5,7.5,12,7.5s9-3,12-7.5c-3-4.5-7.5-7.5-12-7.5Z"/>
      <path class="cls-3" d="M12,7.5c-2.49,0-4.5,2.01-4.5,4.5s2.01,4.5,4.5,4.5,4.5-2.01,4.5-4.5-2.02-4.5-4.5-4.5ZM12,17.25c-3.19,0-6.62-1.98-9.22-5.25,2.6-3.27,6.03-5.25,9.22-5.25s6.62,1.98,9.22,5.25c-2.6,3.27-6.03,5.25-9.22,5.25ZM12,4.5C7.5,4.5,3,7.5,0,12c3,4.5,7.5,7.5,12,7.5s9-3,12-7.5c-3-4.5-7.5-7.5-12-7.5Z"/>
    </g>
  </g>
</svg>