<?xml version="1.0" encoding="UTF-8"?>
<svg id="Layer_1" data-name="Layer 1" xmlns="http://www.w3.org/2000/svg" viewBox="0 0 21.6 23.35">
  <defs>
    <style>
      .cls-1, .cls-2 {
        fill: #000;
        stroke-width: 0px;
      }

      .cls-2 {
        fill-rule: evenodd;
      }
    </style>
  </defs>
  <path class="cls-2" d="M10.77,19.9c-4.48,0-8.12-3.65-8.12-8.12S6.29,3.65,10.77,3.65s8.12,3.64,8.12,8.12-3.65,8.12-8.12,8.12ZM10.77,1.77C5.25,1.77.77,6.25.77,11.77s4.48,10,10,10,10-4.48,10-10S16.3,1.77,10.77,1.77Z"/>
  <path class="cls-2" d="M10.77,19.9c-4.48,0-8.12-3.65-8.12-8.12S6.29,3.65,10.77,3.65s8.12,3.64,8.12,8.12-3.65,8.12-8.12,8.12ZM10.77,1.77C5.25,1.77.77,6.25.77,11.77s4.48,10,10,10,10-4.48,10-10S16.3,1.77,10.77,1.77Z"/>
  <path class="cls-1" d="M7.54,16.77c-.06,0-.12-.02-.17-.06-.04-.05-.06-.11-.06-.17v-1.62c0-.11.03-.2.1-.27l4.68-5.5c.06-.08.04-.11-.06-.11h-4.4c-.06,0-.12-.02-.17-.06-.04-.05-.06-.11-.06-.17v-1.54c0-.06.02-.11.06-.15.05-.05.11-.08.17-.08h6.93c.06,0,.11.03.15.08.05.04.08.09.08.15v1.62c0,.1-.04.19-.11.27l-4.78,5.5c-.05.08-.03.11.06.11h4.66c.06,0,.11.03.15.08.05.04.08.09.08.15v1.54c0,.06-.03.12-.08.17-.04.04-.09.06-.15.06h-7.08Z"/>
  <path class="cls-1" d="M.7,6.21C-.36,4.94-.2,3.05,1.07,1.99l1.53-1.29c1.27-1.07,3.16-.9,4.23.37L.7,6.21Z"/>
  <path class="cls-1" d="M14.77,1.07c1.07-1.27,2.96-1.43,4.23-.37l1.53,1.29c1.27,1.07,1.43,2.96.37,4.23L14.77,1.07Z"/>
  <path class="cls-1" d="M2.24,22.07c-.29.29-.29.77,0,1.06.29.29.77.29,1.06,0l-1.06-1.06ZM6.13,20.3l.53-.53-1.06-1.06-.53.53,1.06,1.06ZM3.3,23.13l2.83-2.83-1.06-1.06-2.83,2.83,1.06,1.06Z"/>
  <path class="cls-1" d="M16.3,19.24l-.53-.53-1.06,1.06.53.53,1.06-1.06ZM18.07,23.13c.29.29.77.29,1.06,0,.29-.29.29-.77,0-1.06l-1.06,1.06ZM15.24,20.3l2.83,2.83,1.06-1.06-2.83-2.83-1.06,1.06Z"/>
</svg>