<?xml version="1.0" encoding="UTF-8"?>
<svg id="Layer_1" data-name="Layer 1" xmlns="http://www.w3.org/2000/svg" xmlns:xlink="http://www.w3.org/1999/xlink" viewBox="0 0 24 24">
  <defs>
    <style>
      .cls-1 {
        clip-path: url(#clippath);
      }

      .cls-2 {
        fill: none;
      }

      .cls-2, .cls-3 {
        stroke-width: 0px;
      }

      .cls-3 {
        fill: #000;
        fill-rule: evenodd;
      }
    </style>
    <clipPath id="clippath">
      <rect class="cls-2" width="24" height="24"/>
    </clipPath>
  </defs>
  <g class="cls-1">
    <path class="cls-3" d="M18.21,17.16h-10.09l7.49-7.49v5.31l2.61,2.18ZM8.29,9c0-2.55,1.2-3.8,3.68-3.8,1.22,0,2.73.26,3.35,1.98l-7.03,7.03v-5.21ZM17.89,9c0-.52-.05-1.01-.14-1.47l5.39-5.39-1.39-1.39-4.72,4.72c-.71-1.21-1.88-2.04-3.48-2.37,0-.01,0-.02,0-.03,0-.89-.72-1.62-1.62-1.62s-1.62.72-1.62,1.62c0,.01,0,.03,0,.04-2.87.6-4.34,2.84-4.34,5.9v4.92l-3.06,2.55v2.97h.11l-2.31,2.31,1.39,1.39,3.7-3.7h3.11c0,1.66,1.34,3,3,3s3-1.34,3-3h6v-2.97l-3.06-2.55v-4.92Z"/>
  </g>
</svg>