<?xml version="1.0" encoding="UTF-8"?>
<svg id="Layer_1" data-name="Layer 1" xmlns="http://www.w3.org/2000/svg" xmlns:xlink="http://www.w3.org/1999/xlink" viewBox="0 0 24 24">
  <defs>
    <style>
      .cls-1 {
        clip-path: url(#clippath);
      }

      .cls-2 {
        fill: none;
      }

      .cls-2, .cls-3 {
        stroke-width: 0px;
      }

      .cls-3 {
        fill: #000;
        fill-rule: evenodd;
      }
    </style>
    <clipPath id="clippath">
      <rect class="cls-2" width="24" height="24"/>
    </clipPath>
  </defs>
  <g class="cls-1">
    <path class="cls-3" d="M4.55,7.36c.12-1.27.69-2.41,1.64-3.28l-1.01-1.11c-1.21,1.11-1.97,2.62-2.12,4.24l1.49.14ZM4.67,1.28L3.89,0C1.27,1.61-.18,4.35.02,7.34l1.5-.1c-.16-2.42,1.02-4.65,3.16-5.96ZM20.32,7.22c-.16-1.62-.91-3.13-2.12-4.24l-1.01,1.11c.95.87,1.52,2,1.64,3.28l1.49-.14ZM19.49,0l-.79,1.28c2.14,1.32,3.32,3.54,3.16,5.96l1.5.1C23.56,4.35,22.11,1.61,19.49,0ZM17.63,10.35c0-3.07-1.45-5.32-4.33-5.91,0-.01,0-.02,0-.03,0-.89-.72-1.62-1.62-1.62s-1.62.72-1.62,1.62c0,.01,0,.03,0,.04-2.87.6-4.34,2.84-4.34,5.9v4.92l-3.06,2.55v2.97h6c0,1.66,1.34,3,3,3s3-1.34,3-3h6v-2.97l-3.06-2.55v-4.92Z"/>
  </g>
</svg>