<?xml version="1.0" encoding="UTF-8"?>
<svg id="Layer_1" data-name="Layer 1" xmlns="http://www.w3.org/2000/svg" xmlns:xlink="http://www.w3.org/1999/xlink" viewBox="0 0 24 24">
  <defs>
    <style>
      .cls-1 {
        clip-path: url(#clippath);
      }

      .cls-2 {
        fill: none;
      }

      .cls-2, .cls-3, .cls-4 {
        stroke-width: 0px;
      }

      .cls-5 {
        clip-path: url(#clippath-1);
      }

      .cls-3 {
        fill: #e22028;
        fill-rule: evenodd;
      }

      .cls-4 {
        fill: #fff;
      }
    </style>
    <clipPath id="clippath">
      <rect class="cls-2" width="24" height="24"/>
    </clipPath>
    <clipPath id="clippath-1">
      <rect class="cls-2" width="24" height="24"/>
    </clipPath>
  </defs>
  <g class="cls-1">
    <g class="cls-5">
      <g>
        <path class="cls-3" d="M0,12C0,5.38,5.38,0,12,0s12,5.38,12,12-5.38,12-12,12S0,18.62,0,12ZM7.57,13.13c0,.58.47,1.05,1.06,1.05s1.06-.47,1.06-1.06v-6.87c0-.58-.47-1.05-1.06-1.05s-1.06.47-1.06,1.05v6.88ZM9.91,17.37c-.34-.74-1.22-1.06-1.96-.72-.74.34-1.06,1.22-.72,1.96.34.74,1.23,1.06,1.96.72.74-.34,1.06-1.22.72-1.96ZM15.25,14.31c-.58,0-1.06-.47-1.06-1.05v-6.88c0-.58.47-1.05,1.06-1.05s1.06.47,1.06,1.05v6.87c0,.58-.47,1.06-1.06,1.06ZM14.57,16.77c.74-.34,1.62-.02,1.96.72.34.74.02,1.62-.72,1.96-.74.34-1.62.02-1.96-.72-.34-.74-.02-1.62.72-1.96Z"/>
        <path class="cls-4" d="M8.63,14.19c-.58,0-1.06-.47-1.06-1.05v-6.88c0-.58.47-1.05,1.06-1.05s1.06.47,1.06,1.05v6.87c0,.58-.47,1.06-1.06,1.06Z"/>
        <path class="cls-4" d="M7.95,16.65c.74-.34,1.62-.02,1.96.72.34.74.02,1.62-.72,1.96-.74.34-1.62.02-1.96-.72-.34-.74-.02-1.62.72-1.96Z"/>
        <path class="cls-4" d="M15.25,14.31c-.58,0-1.06-.47-1.06-1.05v-6.88c0-.58.47-1.05,1.06-1.05s1.06.47,1.06,1.05v6.87c0,.58-.47,1.06-1.06,1.06Z"/>
        <path class="cls-4" d="M14.57,16.77c.74-.34,1.62-.02,1.96.72.34.74.02,1.62-.72,1.96-.74.34-1.62.02-1.96-.72-.34-.74-.02-1.62.72-1.96Z"/>
      </g>
    </g>
  </g>
</svg>