<?xml version="1.0" encoding="UTF-8"?>
<svg id="Layer_1" data-name="Layer 1" xmlns="http://www.w3.org/2000/svg" xmlns:xlink="http://www.w3.org/1999/xlink" viewBox="0 0 24 24">
  <defs>
    <style>
      .cls-1 {
        clip-path: url(#clippath);
      }

      .cls-2 {
        fill: none;
      }

      .cls-2, .cls-3 {
        stroke-width: 0px;
      }

      .cls-3 {
        fill: #000;
        fill-rule: evenodd;
      }
    </style>
    <clipPath id="clippath">
      <rect class="cls-2" y="0" width="24" height="24"/>
    </clipPath>
  </defs>
  <g class="cls-1">
    <path class="cls-3" d="M12.84,8.4h-1.5v5.77l4.52,4.37,1.04-1.08-4.06-3.93v-5.14ZM12.09,21.43c-4.25,0-7.71-3.46-7.71-7.72s3.46-7.71,7.71-7.71,7.71,3.46,7.71,7.71-3.46,7.72-7.71,7.72ZM19.74,6.86l1.09-1.09-2.5-2.5-1.39,1.39c-1.13-.61-2.39-1.01-3.72-1.15v-1.24h1.88V0h-6v2.25h1.87v1.24c-1.34.15-2.59.55-3.72,1.15l-1.39-1.39-2.5,2.5,1.09,1.09c-1.63,1.82-2.64,4.22-2.64,6.86,0,5.68,4.6,10.29,10.29,10.29s10.29-4.6,10.29-10.29c0-2.64-1-5.04-2.64-6.86Z"/>
  </g>
</svg>