<?xml version="1.0" encoding="UTF-8"?>
<svg id="Layer_1" data-name="Layer 1" xmlns="http://www.w3.org/2000/svg" xmlns:xlink="http://www.w3.org/1999/xlink" viewBox="0 0 24 24">
  <defs>
    <style>
      .cls-1 {
        clip-path: url(#clippath);
      }

      .cls-2 {
        fill: none;
      }

      .cls-2, .cls-3 {
        stroke-width: 0px;
      }

      .cls-3 {
        fill: #000;
        fill-rule: evenodd;
      }
    </style>
    <clipPath id="clippath">
      <rect class="cls-2" width="24" height="24"/>
    </clipPath>
  </defs>
  <g class="cls-1">
    <g>
      <path class="cls-3" d="M9.42,14.56l-2.63-2.63-1.59,1.59,4.23,4.23,9.37-9.46-1.6-1.58-7.78,7.86ZM12,21.75c-5.38,0-9.75-4.37-9.75-9.75S6.62,2.25,12,2.25s9.75,4.37,9.75,9.75-4.37,9.75-9.75,9.75ZM12,0C5.37,0,0,5.37,0,12s5.37,12,12,12,12-5.37,12-12S18.63,0,12,0Z"/>
      <path class="cls-3" d="M9.42,14.56l-2.63-2.63-1.59,1.59,4.23,4.23,9.37-9.46-1.6-1.58-7.78,7.86ZM12,21.75c-5.38,0-9.75-4.37-9.75-9.75S6.62,2.25,12,2.25s9.75,4.37,9.75,9.75-4.37,9.75-9.75,9.75ZM12,0C5.37,0,0,5.37,0,12s5.37,12,12,12,12-5.37,12-12S18.63,0,12,0Z"/>
    </g>
  </g>
</svg>