<?xml version="1.0" encoding="UTF-8"?>
<svg id="Layer_1" data-name="Layer 1" xmlns="http://www.w3.org/2000/svg" xmlns:xlink="http://www.w3.org/1999/xlink" viewBox="0 0 24 24">
  <defs>
    <style>
      .cls-1 {
        clip-path: url(#clippath);
      }

      .cls-2 {
        fill: none;
      }

      .cls-2, .cls-3, .cls-4, .cls-5 {
        stroke-width: 0px;
      }

      .cls-3 {
        fill: #fff;
      }

      .cls-3, .cls-5 {
        fill-rule: evenodd;
      }

      .cls-4, .cls-5 {
        fill: #916aad;
      }
    </style>
    <clipPath id="clippath">
      <rect class="cls-2" width="24" height="24"/>
    </clipPath>
  </defs>
  <g class="cls-1">
    <g>
      <path class="cls-3" d="M18.48,1.48H5.84c-.33,0-.59.27-.59.59v19.85c0,.33.27.59.59.59h12.64c.33,0,.59-.27.59-.59V2.07c0-.33-.27-.59-.59-.59ZM12.17,14.26c-.57,0-1.02-.46-1.02-1.03v-6.87c0-.57.46-1.03,1.02-1.03s1.02.46,1.02,1.03v6.87c0,.57-.46,1.03-1.02,1.03ZM11.51,16.7c.72-.33,1.57-.02,1.9.71.33.72.02,1.58-.7,1.92-.72.33-1.57.02-1.9-.7-.33-.72-.02-1.58.7-1.92Z"/>
      <path class="cls-4" d="M12.15,14.26c-.57,0-1.02-.46-1.02-1.03v-6.87c0-.57.46-1.03,1.02-1.03s1.02.46,1.02,1.03v6.87c0,.57-.46,1.03-1.02,1.03Z"/>
      <path class="cls-4" d="M11.49,16.7c.72-.33,1.57-.02,1.9.71.33.72.02,1.58-.7,1.92-.72.33-1.57.02-1.9-.7-.33-.72-.02-1.58.7-1.92Z"/>
      <path class="cls-5" d="M3.75,2.07c0-1.15.93-2.07,2.07-2.07h12.64c1.15,0,2.07.93,2.07,2.07v19.85c0,1.15-.93,2.07-2.07,2.07H5.82c-1.15,0-2.07-.93-2.07-2.07V2.07ZM5.82,1.48h12.64c.33,0,.59.27.59.59v19.85c0,.33-.27.59-.59.59H5.82c-.33,0-.59-.27-.59-.59V2.07c0-.33.27-.59.59-.59Z"/>
    </g>
  </g>
</svg>