<?xml version="1.0" encoding="UTF-8"?>
<svg id="Layer_1" data-name="Layer 1" xmlns="http://www.w3.org/2000/svg" viewBox="0 0 28 28">
  <defs>
    <style>
      .cls-1 {
        fill: none;
        stroke: #000;
        stroke-width: 2px;
      }

      .cls-2 {
        fill: #000;
        fill-rule: evenodd;
        stroke-width: 0px;
      }
    </style>
  </defs>
  <rect class="cls-1" x="1" y="1" width="26" height="26"/>
  <path class="cls-2" d="M7.73,20.22l2.61-2.18v-5.98c0-2.55,1.2-3.8,3.68-3.8,1.56,0,3.64.39,3.64,3.8v5.98l2.61,2.18H7.73ZM19.94,16.97v-4.92c0-3.07-1.45-5.32-4.34-5.91,0-.01,0-.02,0-.03,0-.89-.72-1.62-1.62-1.62s-1.62.72-1.62,1.62c0,.01,0,.03,0,.04-2.87.6-4.33,2.84-4.33,5.9v4.92l-3.06,2.55v2.97h6c0,1.66,1.34,3,3,3s3-1.34,3-3h6v-2.97l-3.06-2.55Z"/>
</svg>