<?xml version="1.0" encoding="UTF-8"?>
<svg id="Layer_1" data-name="Layer 1" xmlns="http://www.w3.org/2000/svg" xmlns:xlink="http://www.w3.org/1999/xlink" viewBox="0 0 24 24">
  <defs>
    <style>
      .cls-1 {
        clip-path: url(#clippath);
      }

      .cls-2 {
        fill: none;
      }

      .cls-2, .cls-3 {
        stroke-width: 0px;
      }

      .cls-3 {
        fill: #000;
        fill-rule: evenodd;
      }
    </style>
    <clipPath id="clippath">
      <rect class="cls-2" width="24" height="24"/>
    </clipPath>
  </defs>
  <g class="cls-1">
    <path class="cls-3" d="M16.5,13.5c-.29,0-.56-.05-.84-.09-.35-.05-.69-.13-1.02-.24-.02,0-.04-.01-.06-.02-.31-.1-.61-.23-.89-.39-.04-.02-.08-.05-.12-.07-.26-.15-.5-.31-.73-.49-.07-.05-.13-.11-.19-.16-.2-.17-.39-.35-.57-.54-.08-.09-.16-.19-.24-.29-.14-.18-.28-.35-.4-.55-.09-.14-.16-.3-.24-.45-.09-.17-.18-.33-.25-.51-.09-.21-.14-.43-.2-.65-.04-.14-.09-.27-.12-.42-.08-.37-.12-.76-.12-1.15,0-.18.04-.36.05-.54.08-.88.34-1.69.76-2.42.36-.62.82-1.17,1.37-1.63.07-.06.15-.12.22-.18.15-.11.3-.22.46-.32.19-.12.38-.22.58-.31.13-.06.27-.12.4-.18.25-.1.52-.18.79-.24.1-.02.2-.04.3-.06.35-.06.7-.11,1.06-.11,3.31,0,6,2.69,6,6,0,.39-.04.76-.11,1.12-.02.13-.07.25-.1.38-.06.23-.12.45-.21.66-.06.15-.13.3-.2.44-.08.17-.17.34-.27.5-.1.16-.2.31-.31.46-.09.12-.19.24-.29.35-.14.16-.28.32-.44.47-.07.06-.14.11-.21.17-.69.59-1.51,1.03-2.42,1.25h0c-.47.12-.94.2-1.44.2ZM18.27,18.72H5.73l2.61-2.18v-5.98c0-1.11.24-1.96.71-2.58.23,3.63,3.03,6.54,6.61,6.94v1.62l2.61,2.18ZM24,7.5c0-4.14-3.36-7.5-7.5-7.5-3.23,0-5.95,2.05-7.01,4.91-2.28.85-3.43,2.93-3.43,5.65v4.92l-3.06,2.55v2.97h6c0,1.66,1.34,3,3,3s3-1.34,3-3h6v-2.97l-3.06-2.55v-.62c3.45-.67,6.06-3.71,6.06-7.35ZM18.77,4.97l-3.52,3.47-1.01-1.01-1.06,1.06,2.06,2.06,4.58-4.51-1.05-1.07Z"/>
  </g>
</svg>