<?xml version="1.0" encoding="utf-8"?>
<!-- Generator: Adobe Illustrator 26.5.0, SVG Export Plug-In . SVG Version: 6.00 Build 0)  -->
<svg version="1.2" baseProfile="tiny" xmlns="http://www.w3.org/2000/svg" xmlns:xlink="http://www.w3.org/1999/xlink" x="0px"
	 y="0px" viewBox="0 0 23.229 55.735" overflow="visible" xml:space="preserve">
<g id="grid" display="none">
</g>
<g id="stk">
	<rect x="0.878" y="1" fill="none" stroke="#9C9B9B" stroke-width="2" stroke-miterlimit="10" width="21.297" height="53.735"/>
	<rect x="0.981" y="0.983" fill="none" stroke="#9C9B9B" stroke-width="2" stroke-miterlimit="10" width="21.127" height="6.526"/>
	<rect x="1.034" y="19.407" fill="none" stroke="#9C9B9B" stroke-width="2" stroke-miterlimit="10" width="21.127" height="35.13"/>
	<rect x="0.981" y="7.74" fill="none" stroke="#9C9B9B" stroke-width="2" stroke-miterlimit="10" width="21.127" height="11.664"/>
	<g>
		<g>
			<g>
				<rect x="7.377" y="25.189" fill="#9C9B9B" width="1.678" height="1.036"/>
			</g>
		</g>
		
			<rect x="5.565" y="23.524" transform="matrix(-1 -1.224647e-16 1.224647e-16 -1 23.1776 51.4688)" fill="none" stroke="#9C9B9B" stroke-width="2" stroke-miterlimit="10" width="12.047" height="4.42"/>
	</g>
	<g>
		
			<rect x="5.624" y="32.46" transform="matrix(-1 -1.224647e-16 1.224647e-16 -1 23.2946 69.3395)" fill="none" stroke="#9C9B9B" stroke-width="2" stroke-miterlimit="10" width="12.047" height="4.42"/>
	</g>
	<g>
		
			<rect x="12.475" y="41.089" transform="matrix(-1 -1.224647e-16 1.224647e-16 -1 30.2398 86.5986)" fill="none" stroke="#9C9B9B" stroke-width="2" stroke-miterlimit="10" width="5.29" height="4.42"/>
	</g>
	<g>
		
			<rect x="5.557" y="11.441" transform="matrix(-1 -1.224647e-16 1.224647e-16 -1 16.4036 27.3015)" fill="none" stroke="#9C9B9B" stroke-width="2" stroke-miterlimit="10" width="5.29" height="4.42"/>
	</g>
	<g>
		
			<rect x="5.624" y="50.071" transform="matrix(-1 -1.224647e-16 1.224647e-16 -1 23.2946 104.5616)" fill="none" stroke="#9C9B9B" stroke-width="2" stroke-miterlimit="10" width="12.047" height="4.42"/>
	</g>
	
		<rect x="-114.07" y="-7.167" fill="none" stroke="#FFFFFF" stroke-width="0.5" stroke-miterlimit="10" width="530.325" height="69.711"/>
</g>
</svg>
