<svg version="1.2" baseProfile="tiny" viewBox="0 0 10.000 20.000" xmlns:xlink="http://www.w3.org/1999/xlink" xmlns="http://www.w3.org/2000/svg">
<path style="fill:#111111;" d="M9.298,6.2349L5.319,0.3051C5.24,0.1881,5.129,0.104,5.003,0.055C4.911,0.0179,4.812,0.0,4.712,0.0C4.598,0.0,4.483,0.023,4.382,0.0699C4.272,0.1211,4.174,0.1989,4.103,0.304L0.124,6.2349C0.056,6.337,0.016,6.4519,0.0040,6.5701C-0.011,6.7121,0.017,6.857,0.086,6.9871C0.145,7.0969,0.23,7.1879,0.33,7.254C0.447,7.331,0.587,7.3749,0.732,7.3749L3.711,7.3749L3.711,20.32C3.711,20.42,3.726,20.5159,3.753,20.607C3.793,20.74,3.859,20.862,3.947,20.9649C4.021,21.053,4.11,21.128,4.211,21.186C4.358,21.2709,4.529,21.3191,4.711,21.3191C4.871,21.3191,5.023,21.2809,5.157,21.214C5.266,21.1619,5.363,21.088,5.445,20.9999C5.54,20.8969,5.613,20.775,5.659,20.6389C5.692,20.5389,5.711,20.4319,5.711,20.321L5.711,7.3749L8.69,7.3749C8.843,7.3749,8.989,7.327,9.11,7.243C9.202,7.1779,9.28,7.0909,9.336,6.988C9.393,6.8809,9.421,6.7641,9.422,6.6481C9.423,6.5029,9.381,6.359,9.298,6.2349Z"/>
</svg>