<?xml version="1.0" standalone="no"?><!DOCTYPE svg PUBLIC "-//W3C//DTD SVG 1.1//EN" "http://www.w3.org/Graphics/SVG/1.1/DTD/svg11.dtd"><svg t="1723782972345" class="icon" viewBox="0 0 1092 1024" version="1.1" xmlns="http://www.w3.org/2000/svg" p-id="15631" xmlns:xlink="http://www.w3.org/1999/xlink" width="68.25" height="64"><path d="M1024 682.666667c-6.826667 0-13.653333 0-20.48 6.826666L546.133333 880.64 88.746667 682.666667H68.266667c-27.306667 0-47.786667 20.48-47.786667 47.786666 0 20.48 13.653333 40.96 27.306667 47.786667l477.866666 204.8c13.653333 6.826667 27.306667 6.826667 40.96 0l477.866667-204.8c20.48-6.826667 27.306667-27.306667 27.306667-47.786667 0-27.306667-20.48-47.786667-47.786667-47.786666z m0-218.453334c-6.826667 0-20.48 6.826667-20.48 6.826667L546.133333 662.186667 88.746667 464.213333s-13.653333-6.826667-20.48-6.826666c-27.306667 0-47.786667 20.48-47.786667 47.786666 0 20.48 13.653333 40.96 27.306667 47.786667l477.866666 204.8c6.826667 0 13.653333 6.826667 20.48 6.826667s13.653333 0 20.48-6.826667l477.866667-204.8c20.48-6.826667 27.306667-27.306667 27.306667-47.786667 0-20.48-20.48-40.96-47.786667-40.96zM47.786667 341.333333l477.866666 204.8h40.96l477.866667-204.8c20.48-6.826667 27.306667-27.306667 27.306667-47.786666 0-20.48-13.653333-40.96-27.306667-47.786667l-477.866667-204.8c-13.653333-6.826667-27.306667-6.826667-40.96 0l-477.866666 204.8c-13.653333 6.826667-27.306667 27.306667-27.306667 47.786667 0 20.48 13.653333 40.96 27.306667 47.786666z" fill="#2c2c2c" p-id="15632"></path></svg>