<?xml version="1.0" standalone="no"?><!DOCTYPE svg PUBLIC "-//W3C//DTD SVG 1.1//EN" "http://www.w3.org/Graphics/SVG/1.1/DTD/svg11.dtd"><svg t="1724033304556" class="icon" viewBox="0 0 1024 1024" version="1.1" xmlns="http://www.w3.org/2000/svg" p-id="4748" xmlns:xlink="http://www.w3.org/1999/xlink" width="64" height="64"><path d="M736 95.904a32 32 0 1 0 0 64h82.848l-214.304 214.304-224-160-275.2 275.168a32 32 0 1 0 45.28 45.248l236.832-236.8 224 160L864 205.216v82.656a32 32 0 1 0 64 0v-160a32 32 0 0 0-32-32h-160zM416 512h-64v416h64V512z m-224 160H128v256h64v-256z m448-64h-64v320h64V608z m224-96h-64v416h64V512z" fill="#2c2c2c" p-id="4749"></path></svg>