<?xml version="1.0" standalone="no"?><!DOCTYPE svg PUBLIC "-//W3C//DTD SVG 1.1//EN" "http://www.w3.org/Graphics/SVG/1.1/DTD/svg11.dtd"><svg t="1723783085388" class="icon" viewBox="0 0 1024 1024" version="1.1" xmlns="http://www.w3.org/2000/svg" p-id="18557" xmlns:xlink="http://www.w3.org/1999/xlink" width="64" height="64"><path d="M1024 512c0 282.8-229.2 512-512 512S0 794.8 0 512 229.2 0 512 0s512 229.2 512 512zM507.7 640.5h8.6c26.3 0 48.1-20.4 49.9-46.7l20.7-308.5c1.9-28.9-21-53.3-49.9-53.3h-50c-28.9 0-51.8 24.5-49.9 53.3l20.7 308.5c1.8 26.3 23.6 46.7 49.9 46.7zM512 792c28.2 0 51.1-22.9 51.1-51.1 0-28.2-22.9-51.1-51.1-51.1-28.2 0-51.1 22.9-51.1 51.1 0 28.2 22.9 51.1 51.1 51.1z" p-id="18558"></path></svg>