<?xml version="1.0" standalone="no"?><!DOCTYPE svg PUBLIC "-//W3C//DTD SVG 1.1//EN" "http://www.w3.org/Graphics/SVG/1.1/DTD/svg11.dtd"><svg t="1723783073238" class="icon" viewBox="0 0 1024 1024" version="1.1" xmlns="http://www.w3.org/2000/svg" p-id="18407" xmlns:xlink="http://www.w3.org/1999/xlink" width="64" height="64"><path d="M983.8 312.7C958 251.7 921 197 874 150c-47-47-101.7-84-162.7-109.7C648.2 13.5 581.1 0 512 0c-69.1 0-136.2 13.5-199.3 40.3C251.7 66 197 103 150 150S66 251.7 40.3 312.7C13.5 375.8 0 442.9 0 512c0 69.1 13.5 136.2 40.3 199.3C66 772.3 103 827 150 874c47 47 101.8 83.9 162.7 109.7 63.1 26.7 130.2 40.3 199.3 40.3 69.1 0 136.2-13.5 199.3-40.3C772.3 958 827 921 874 874c47-47 83.9-101.8 109.7-162.7 26.7-63.1 40.3-130.2 40.3-199.3 0-69.1-13.5-136.2-40.2-199.3zM560.3 797.3c0 22-21.6 39.8-48.3 39.8-26.7 0-48.3-17.8-48.3-39.8V409.1c0-22 21.6-39.8 48.3-39.8 26.7 0 48.3 17.8 48.3 39.8v388.2zM512 304.9c-32.6 0-59-26.4-59-59s26.4-59 59-59 59 26.4 59 59-26.4 59-59 59z" p-id="18408"></path></svg>