<?xml version="1.0" standalone="no"?><!DOCTYPE svg PUBLIC "-//W3C//DTD SVG 1.1//EN" "http://www.w3.org/Graphics/SVG/1.1/DTD/svg11.dtd"><svg t="1723782992815" class="icon" viewBox="0 0 1024 1024" version="1.1" xmlns="http://www.w3.org/2000/svg" p-id="16674" xmlns:xlink="http://www.w3.org/1999/xlink" width="64" height="64"><path d="M796.444 1024H227.556A227.556 227.556 0 0 1 0 796.444V227.556A227.556 227.556 0 0 1 227.556 0h568.888A227.556 227.556 0 0 1 1024 227.556v568.888A227.556 227.556 0 0 1 796.444 1024z" fill="#FFFFFF" p-id="16675"></path><path d="M796.444 0H227.556A227.556 227.556 0 0 0 0 227.556v568.888A227.556 227.556 0 0 0 227.556 1024h568.888A227.556 227.556 0 0 0 1024 796.444V227.556A227.556 227.556 0 0 0 796.444 0zM227.556 910.222c-62.749 0-113.778-51.03-113.778-113.778V455.111h170.666v455.111h-56.888z m682.666-113.778c0 62.749-51.03 113.778-113.778 113.778H398.222v-455.11h512v341.332z m-796.444-455.11V227.555c0-62.749 51.03-113.778 113.778-113.778h568.888c62.749 0 113.778 51.03 113.778 113.778v113.777H113.778z" p-id="16676"></path></svg>