<?xml version="1.0" standalone="no"?><!DOCTYPE svg PUBLIC "-//W3C//DTD SVG 1.1//EN" "http://www.w3.org/Graphics/SVG/1.1/DTD/svg11.dtd"><svg t="1723782733749" class="icon" viewBox="0 0 1024 1024" version="1.1" xmlns="http://www.w3.org/2000/svg" p-id="7296" xmlns:xlink="http://www.w3.org/1999/xlink" width="64" height="64"><path d="M785.066667 567.466667l-290.133334-46.933334V302.933333c0-34.133333-29.866667-59.733333-59.733333-59.733333s-64 25.6-64 59.733333v213.333334c0 55.466667 0 140.8-8.533333 157.866666-12.8 12.8-38.4-12.8-46.933334-34.133333-8.533333-17.066667-38.4-64-98.133333-64-64 0-42.666667 51.2-42.666667 51.2L341.333333 938.666667h435.2c8.533333-34.133333 55.466667-149.333333 72.533334-238.933334 21.333333-115.2-64-132.266667-64-132.266666z" fill="#3C3C41" p-id="7297"></path><path d="M605.866667 345.6c-25.6 0-42.666667-17.066667-42.666667-42.666667 0-72.533333-59.733333-132.266667-132.266667-132.266666s-128 59.733333-128 132.266666c0 25.6-17.066667 42.666667-42.666666 42.666667s-42.666667-17.066667-42.666667-42.666667c0-119.466667 93.866667-217.6 213.333333-217.6s217.6 98.133333 217.6 217.6c0 21.333333-17.066667 42.666667-42.666666 42.666667z" fill="#3C3C41" p-id="7298"></path></svg>