<?xml version="1.0" standalone="no"?><!DOCTYPE svg PUBLIC "-//W3C//DTD SVG 1.1//EN" "http://www.w3.org/Graphics/SVG/1.1/DTD/svg11.dtd"><svg t="1723783105179" class="icon" viewBox="0 0 1024 1024" version="1.1" xmlns="http://www.w3.org/2000/svg" p-id="18857" xmlns:xlink="http://www.w3.org/1999/xlink" width="64" height="64"><path d="M920 660h-42v-112c0-30.912-25.088-56-56-56H556v-112h42c30.912 0 56-25.088 56-56V184c0-30.912-25.088-56-56-56h-140a56.016 56.016 0 0 0-56 56v140c0 30.912 25.088 56 56 56h42v112H234a56.016 56.016 0 0 0-56 56v112H136a56.016 56.016 0 0 0-56 56v140C80 886.912 105.088 912 136 912h140c30.912 0 56-25.088 56-56v-140c0-30.912-25.088-56-56-56h-42v-112H500v112h-42a56.016 56.016 0 0 0-56 56v140c0 30.912 25.088 56 56 56h140c30.912 0 56-25.088 56-56v-140c0-30.912-25.088-56-56-56H556v-112h266v112H780a56.016 56.016 0 0 0-56 56v140c0 30.912 25.088 56 56 56h140c30.912 0 56-25.088 56-56v-140c0-30.912-25.088-56-56-56z" p-id="18858"></path></svg>