<?xml version="1.0" standalone="no"?><!DOCTYPE svg PUBLIC "-//W3C//DTD SVG 1.1//EN" "http://www.w3.org/Graphics/SVG/1.1/DTD/svg11.dtd"><svg t="1723783029193" class="icon" viewBox="0 0 1024 1024" version="1.1" xmlns="http://www.w3.org/2000/svg" p-id="17807" xmlns:xlink="http://www.w3.org/1999/xlink" width="64" height="64"><path d="M512 0C229.2 0 0 229.3 0 512c0 282.8 229.2 512 512 512s512-229.2 512-512C1024 229.3 794.8 0 512 0z m211.6 671.7c14.7 14.6 14.7 38.4 0 53.1-14.6 14.7-38.4 14.7-53.1 0l-158.9-159-160 160c-14.8 14.8-38.7 14.8-53.5 0-14.8-14.8-14.8-38.7 0-53.4l160-160-158.8-158.9c-14.7-14.6-14.7-38.4 0-53 14.6-14.7 38.4-14.7 53 0l158.9 158.9 161.2-161.2c14.8-14.8 38.7-14.8 53.4 0 14.8 14.8 14.8 38.7 0 53.4L564.7 512.8l158.9 158.9z" p-id="17808"></path></svg>