<?xml version="1.0" standalone="no"?><!DOCTYPE svg PUBLIC "-//W3C//DTD SVG 1.1//EN" "http://www.w3.org/Graphics/SVG/1.1/DTD/svg11.dtd"><svg t="1723783021988" class="icon" viewBox="0 0 1024 1024" version="1.1" xmlns="http://www.w3.org/2000/svg" p-id="17657" xmlns:xlink="http://www.w3.org/1999/xlink" width="64" height="64"><path d="M512 0C229.2 0 0 229.3 0 512c0 282.8 229.2 512 512 512s512-229.2 512-512C1024 229.3 794.8 0 512 0z m308.8 306.1L453 754.8c-11.6 13.9-27.6 9.1-36.1 1.1L209.6 553.7c-2.7-2.6-3.3-7.2-1.2-10.4l31.3-36.3c2.1-3.2 6.3-4 9.4-1.8l160.1 110.7c9.3 6.4 22.6 6.8 31.9-2.1l336.9-346c2.8-2.5 7.3-2.5 10.1 0l32.2 28.8c2.8 2.5 3.1 6.7 0.5 9.5z" p-id="17658"></path></svg>