<?xml version="1.0" standalone="no"?><!DOCTYPE svg PUBLIC "-//W3C//DTD SVG 1.1//EN" "http://www.w3.org/Graphics/SVG/1.1/DTD/svg11.dtd"><svg t="1723782789622" class="icon" viewBox="0 0 1024 1024" version="1.1" xmlns="http://www.w3.org/2000/svg" p-id="10579" xmlns:xlink="http://www.w3.org/1999/xlink" width="64" height="64"><path d="M266.239659 85.333333v42.666667a83.968 83.968 0 0 0 81.92 85.333333h327.68a83.968 83.968 0 0 0 81.92-85.333333V85.333333h122.88a41.915733 41.915733 0 0 1 40.96 42.666667v853.333333a41.847467 41.847467 0 0 1-40.96 42.666667H143.359659a41.847467 41.847467 0 0 1-40.96-42.666667v-853.333333a41.847467 41.847467 0 0 1 40.96-42.666667h122.88z m81.92 320.034134a20.002133 20.002133 0 0 0 5.5296 15.291733 19.319467 19.319467 0 0 0 14.9504 6.007467h286.72a21.367467 21.367467 0 0 0 0-42.666667H368.639659a19.524267 19.524267 0 0 0-14.9504 5.9392 20.48 20.48 0 0 0-5.5296 15.428267z m-81.92 170.666666a20.48 20.48 0 0 0 5.5296 15.428267 19.592533 19.592533 0 0 0 14.9504 5.9392h450.56a21.367467 21.367467 0 0 0 0-42.666667H286.719659a19.319467 19.319467 0 0 0-14.9504 5.9392 20.48 20.48 0 0 0-5.5296 15.36z m0 170.666667a20.48 20.48 0 0 0 5.5296 15.428267 19.592533 19.592533 0 0 0 14.9504 5.9392h450.56a21.367467 21.367467 0 0 0 0-42.666667H286.719659a19.524267 19.524267 0 0 0-14.9504 5.9392 20.48 20.48 0 0 0-5.5296 15.36zM307.199659 42.666667A41.915733 41.915733 0 0 1 348.159659 0h327.68a41.915733 41.915733 0 0 1 40.96 42.666667v85.333333a41.915733 41.915733 0 0 1-40.96 42.666667H348.159659a41.915733 41.915733 0 0 1-40.96-42.666667V42.666667z m0 0" fill="#2c2c2c" p-id="10580"></path></svg>